<svg id="Calque_1" data-name="Calque 1" xmlns="http://www.w3.org/2000/svg" viewBox="0 0 310 185" width="310" height="185"><defs><style>.cls-1{fill:#b32524;}.cls-2{fill:#fcb731;}.cls-3{fill:#231f20;}</style></defs><title>logo</title><rect class="cls-1" x="102.05" y="156.42" width="4.31" height="4.3" transform="translate(-25.94 20.49) rotate(-9.99)"/><rect class="cls-1" x="68.46" y="52.38" width="4.31" height="4.3" transform="matrix(0.87, -0.5, 0.5, 0.87, -17.8, 42.61)"/><rect class="cls-1" x="47.24" y="38.95" width="4.31" height="4.3" transform="translate(-14.86 41.35) rotate(-39.99)"/><rect class="cls-1" x="62.2" y="56.76" width="4.31" height="4.31" transform="translate(-22.81 55.12) rotate(-39.98)"/><rect class="cls-2" x="47.88" y="54.69" width="4.31" height="4.31" transform="translate(-25.67 58.62) rotate(-49.99)"/><rect class="cls-1" x="52.4" y="68.42" width="4.3" height="4.31" transform="translate(-33.85 82.52) rotate(-59.99)"/><rect class="cls-1" y="90.35" width="4.31" height="4.3"/><rect class="cls-1" x="34.9" y="90.35" width="4.31" height="4.3"/><rect class="cls-1" x="49.17" y="105.34" width="4.31" height="4.3" transform="translate(-33.68 24.05) rotate(-20.01)"/><rect class="cls-3" x="47.24" y="141.74" width="4.31" height="4.31" transform="translate(-92.6 89.28) rotate(-50.02)"/><rect class="cls-1" x="80.76" y="144.97" width="4.3" height="4.31" transform="translate(-76.38 203.22) rotate(-79.99)"/><rect class="cls-2" x="90.39" width="4.31" height="4.3"/><rect class="cls-2" x="90.39" y="11.63" width="4.31" height="4.3"/><rect class="cls-2" x="90.39" y="23.25" width="4.31" height="4.3"/><rect class="cls-1" x="90.39" y="34.88" width="4.31" height="4.3"/><rect class="cls-2" x="90.39" y="46.5" width="4.31" height="4.3"/><rect class="cls-2" x="90.39" y="180.7" width="4.31" height="4.3"/><rect class="cls-2" x="90.39" y="157.44" width="4.31" height="4.3"/><rect class="cls-2" x="90.39" y="145.82" width="4.31" height="4.3"/><rect class="cls-2" x="76.72" y="12.82" width="4.31" height="4.3" transform="translate(-1.4 13.92) rotate(-10)"/><rect class="cls-2" x="80.76" y="35.72" width="4.31" height="4.3" transform="translate(-5.32 14.97) rotate(-10)"/><rect class="cls-3" x="106.09" y="179.32" width="4.31" height="4.3" transform="translate(-29.85 21.54) rotate(-9.99)"/><rect class="cls-2" x="104.07" y="167.87" width="4.31" height="4.3" transform="translate(-27.89 21.01) rotate(-9.99)"/><rect class="cls-2" x="100.03" y="144.98" width="4.31" height="4.3" transform="translate(-23.97 19.96) rotate(-9.99)"/><rect class="cls-1" x="59.48" y="5.45" width="4.31" height="4.3" transform="translate(1.11 21.53) rotate(-19.99)"/><rect class="cls-2" x="63.46" y="16.37" width="4.31" height="4.3" transform="translate(-2.38 23.54) rotate(-19.99)"/><rect class="cls-2" x="67.43" y="27.3" width="4.31" height="4.3" transform="translate(-5.88 25.56) rotate(-19.99)"/><rect class="cls-2" x="71.41" y="38.22" width="4.31" height="4.3" transform="translate(-9.37 27.58) rotate(-19.99)"/><rect class="cls-2" x="75.39" y="49.15" width="4.31" height="4.3" transform="translate(-12.87 29.61) rotate(-20)"/><rect class="cls-2" x="117.33" y="164.32" width="4.31" height="4.3" transform="matrix(0.94, -0.34, 0.34, 0.94, -49.69, 50.85)"/><rect class="cls-2" x="113.36" y="153.4" width="4.31" height="4.3" transform="translate(-46.23 48.87) rotate(-20)"/><rect class="cls-2" x="109.38" y="142.47" width="4.31" height="4.3" transform="translate(-42.71 46.83) rotate(-19.99)"/><rect class="cls-2" x="56.83" y="32.24" width="4.31" height="4.3" transform="translate(-9.29 34.08) rotate(-29.98)"/><rect class="cls-2" x="62.65" y="42.31" width="4.31" height="4.3" transform="translate(-13.55 38.34) rotate(-29.99)"/><rect class="cls-1" x="135.59" y="168.59" width="4.31" height="4.3" transform="translate(-66.89 91.69) rotate(-29.98)"/><rect class="cls-2" x="129.78" y="158.52" width="4.31" height="4.3" transform="translate(-62.63 87.42) rotate(-29.98)"/><rect class="cls-1" x="123.96" y="148.45" width="4.31" height="4.3" transform="translate(-58.38 83.16) rotate(-29.98)"/><rect class="cls-2" x="39.77" y="30.04" width="4.31" height="4.31" transform="translate(-10.89 34.46) rotate(-39.98)"/><rect class="cls-2" x="141.02" y="150.65" width="4.3" height="4.31" transform="translate(-64.72 127.72) rotate(-39.98)"/><rect class="cls-2" x="133.55" y="141.75" width="4.31" height="4.3" transform="translate(-60.74 120.79) rotate(-39.97)"/><rect class="cls-2" x="21.15" y="32.27" width="4.31" height="4.31" transform="translate(-18.05 30.13) rotate(-49.97)"/><rect class="cls-3" x="30.06" y="39.75" width="4.3" height="4.31" transform="translate(-20.59 39.63) rotate(-49.99)"/><rect class="cls-2" x="38.97" y="47.22" width="4.31" height="4.31" transform="translate(-23.13 49.11) rotate(-49.97)"/><rect class="cls-2" x="56.79" y="62.16" width="4.31" height="4.31" transform="translate(-28.22 68.1) rotate(-49.98)"/><rect class="cls-2" x="12.11" y="45.17" width="4.31" height="4.31" transform="matrix(0.5, -0.87, 0.87, 0.5, -33.85, 36.01)"/><rect class="cls-2" x="22.18" y="50.99" width="4.3" height="4.31" transform="translate(-33.85 47.63) rotate(-59.99)"/><rect class="cls-2" x="32.26" y="56.8" width="4.3" height="4.31" transform="translate(-33.85 59.26) rotate(-59.99)"/><rect class="cls-1" x="42.33" y="62.61" width="4.31" height="4.31" transform="translate(-33.85 70.89) rotate(-59.99)"/><rect class="cls-2" x="27.31" y="67.4" width="4.3" height="4.31" transform="translate(-45.97 73.42) rotate(-69.98)"/><rect class="cls-2" x="38.24" y="71.37" width="4.3" height="4.31" transform="translate(-42.51 86.34) rotate(-70)"/><rect class="cls-2" x="1.37" y="74.66" width="4.3" height="4.31" transform="translate(-72.73 66.94) rotate(-80)"/><rect class="cls-2" x="12.83" y="76.68" width="4.3" height="4.31" transform="translate(-65.25 79.91) rotate(-80.01)"/><rect class="cls-2" x="24.28" y="78.69" width="4.3" height="4.31" transform="translate(-57.77 92.84) rotate(-80)"/><rect class="cls-2" x="35.74" y="80.71" width="4.3" height="4.31" transform="translate(-50.3 105.79) rotate(-80)"/><rect class="cls-2" x="47.19" y="82.73" width="4.3" height="4.31" transform="translate(-42.82 118.74) rotate(-80)"/><rect class="cls-2" x="11.63" y="90.35" width="4.31" height="4.3"/><rect class="cls-2" x="23.26" y="90.35" width="4.31" height="4.3"/><rect class="cls-2" x="46.53" y="90.35" width="4.31" height="4.3"/><rect class="cls-2" x="12.83" y="104.02" width="4.31" height="4.3" transform="translate(-18.19 4.21) rotate(-9.99)"/><rect class="cls-1" x="24.28" y="102" width="4.31" height="4.3" transform="translate(-17.69 6.17) rotate(-10)"/><rect class="cls-2" x="35.74" y="99.98" width="4.31" height="4.3" transform="translate(-17.18 8.15) rotate(-10.02)"/><rect class="cls-2" x="47.19" y="97.96" width="4.31" height="4.3" transform="translate(-16.64 10.09) rotate(-10)"/><rect class="cls-2" x="27.31" y="113.3" width="4.31" height="4.3" transform="translate(-37.73 17.05) rotate(-20.01)"/><rect class="cls-2" x="38.24" y="109.32" width="4.31" height="4.3" transform="translate(-35.73 20.57) rotate(-20.02)"/><rect class="cls-3" x="12.11" y="135.52" width="4.31" height="4.3" transform="translate(-66.96 25.6) rotate(-30.02)"/><rect class="cls-2" x="22.18" y="129.71" width="4.31" height="4.3" transform="translate(-62.7 29.86) rotate(-30.02)"/><rect class="cls-2" x="32.26" y="123.89" width="4.31" height="4.31" transform="translate(-58.43 34.11) rotate(-30.01)"/><rect class="cls-1" x="42.33" y="118.08" width="4.31" height="4.3" transform="translate(-54.18 38.38) rotate(-30.02)"/><rect class="cls-2" x="138.46" y="62.61" width="4.31" height="4.3" transform="translate(-13.54 79.03) rotate(-30.02)"/><rect class="cls-2" x="21.15" y="148.42" width="4.3" height="4.31" transform="translate(-91.39 50.27) rotate(-40.03)"/><rect class="cls-2" x="30.06" y="140.95" width="4.31" height="4.3" transform="translate(-84.46 54.2) rotate(-40.01)"/><rect class="cls-2" x="38.97" y="133.48" width="4.31" height="4.31" transform="translate(-77.58 58.19) rotate(-40.01)"/><rect class="cls-2" x="47.88" y="126" width="4.3" height="4.31" transform="translate(-70.68 62.17) rotate(-40.01)"/><rect class="cls-2" x="150.73" y="39.74" width="4.3" height="4.3" transform="translate(8.88 108.16) rotate(-40.03)"/><rect class="cls-2" x="132.91" y="54.69" width="4.31" height="4.31" transform="translate(-4.93 100.16) rotate(-40.02)"/><rect class="cls-1" x="124" y="62.16" width="4.31" height="4.31" transform="translate(-11.81 96.19) rotate(-40.02)"/><rect class="cls-2" x="32.29" y="159.56" width="4.31" height="4.3" transform="translate(-111.58 84.17) rotate(-50.01)"/><rect class="cls-1" x="54.72" y="132.84" width="4.3" height="4.31" transform="translate(-83.11 91.84) rotate(-50.02)"/><rect class="cls-1" x="148.5" y="21.14" width="4.31" height="4.31" transform="translate(35.97 123.72) rotate(-50)"/><rect class="cls-2" x="133.55" y="38.95" width="4.31" height="4.3" transform="translate(17 118.65) rotate(-50.01)"/><rect class="cls-2" x="126.07" y="47.85" width="4.31" height="4.31" transform="matrix(0.64, -0.77, 0.77, 0.64, 7.52, 116.14)"/><rect class="cls-1" x="56.83" y="148.45" width="4.3" height="4.31" transform="translate(-100.94 126.43) rotate(-60.02)"/><rect class="cls-2" x="62.65" y="138.39" width="4.3" height="4.31" transform="translate(-89.32 126.43) rotate(-60.02)"/><rect class="cls-2" x="129.78" y="22.17" width="4.3" height="4.31" transform="translate(44.92 126.43) rotate(-60.01)"/><rect class="cls-1" x="123.96" y="32.24" width="4.31" height="4.31" transform="translate(33.31 126.45) rotate(-60.02)"/><rect class="cls-2" x="118.15" y="42.31" width="4.3" height="4.31" transform="translate(21.68 126.45) rotate(-60.02)"/><rect class="cls-2" x="112.33" y="52.38" width="4.31" height="4.31" transform="translate(10.02 126.41) rotate(-60)"/><rect class="cls-2" x="59.48" y="175.25" width="4.3" height="4.31" transform="translate(-126.15 174.67) rotate(-70.01)"/><rect class="cls-1" x="63.46" y="164.32" width="4.3" height="4.31" transform="translate(-113.26 171.2) rotate(-70)"/><rect class="cls-2" x="67.44" y="153.39" width="4.3" height="4.31" transform="translate(-100.38 167.78) rotate(-70.01)"/><rect class="cls-2" x="71.41" y="142.47" width="4.3" height="4.31" transform="translate(-87.49 164.36) rotate(-70.02)"/><rect class="cls-2" x="113.36" y="27.3" width="4.31" height="4.31" transform="translate(48.36 127.94) rotate(-70.02)"/><rect class="cls-2" x="109.38" y="38.22" width="4.3" height="4.31" transform="translate(35.48 131.4) rotate(-70.02)"/><rect class="cls-1" x="105.4" y="49.15" width="4.3" height="4.31" transform="translate(22.56 134.81) rotate(-70)"/><rect class="cls-2" x="74.7" y="179.32" width="4.3" height="4.31" transform="translate(-115.22 225.62) rotate(-79.99)"/><rect class="cls-2" x="78.74" y="156.42" width="4.3" height="4.31" transform="translate(-89.31 210.73) rotate(-80.01)"/><rect class="cls-2" x="106.09" y="1.37" width="4.3" height="4.31" transform="translate(85.99 109.52) rotate(-80.01)"/><rect class="cls-2" x="104.07" y="12.82" width="4.3" height="4.31" transform="translate(73.04 116.98) rotate(-80)"/><rect class="cls-3" x="102.05" y="24.27" width="4.3" height="4.31" transform="translate(60.1 124.46) rotate(-80.01)"/><rect class="cls-2" x="100.03" y="35.72" width="4.3" height="4.31" transform="translate(47.17 131.94) rotate(-80.02)"/><rect class="cls-1" x="98.01" y="47.17" width="4.3" height="4.31" transform="translate(34.19 139.39) rotate(-79.99)"/><path class="cls-3" d="M146.27,143.94v-1.26c0-2.94,1.88-4.51,4.83-4.51a6.07,6.07,0,0,1,2.31.47v2.26h-1.16v-1.46a5.27,5.27,0,0,0-1.37-.16,3.06,3.06,0,0,0-3.36,3.41v1.26c0,2.2,1.16,3.41,3.16,3.41h.63a6.24,6.24,0,0,0,2-.42h.11v1a5.83,5.83,0,0,1-2.1.47h-.63C147.63,148.46,146.27,146.56,146.27,143.94Z"/><path class="cls-3" d="M155.4,144.58c0-2.2,1-3.68,3.2-3.68s3.2,1.48,3.2,3.68c0,2.41-1,3.88-3.2,3.88S155.4,147,155.4,144.58Zm5.24,0c0-1.63-.47-2.63-2-2.63s-2,1-2,2.63.47,2.84,2,2.84S160.65,146.2,160.65,144.58Z"/><path class="cls-3" d="M164.32,141h1.16v1.37l.52-.52a2.84,2.84,0,0,1,2.1-1,1.77,1.77,0,0,1,1.88,1.48h.11l.54-.52a2.89,2.89,0,0,1,2.1-1c1.16,0,2,.63,2,2.53v4.93h-1.16v-4.93c0-1.16-.52-1.48-1.16-1.48s-1.47.74-1.88,1.16l-.43.43v4.82h-1.14v-4.93c0-1.16-.54-1.48-1.16-1.48s-1.48.74-1.9,1.16l-.42.43v4.82h-1.16Z"/><path class="cls-3" d="M177.7,141h1.16v1.37l.52-.52a2.84,2.84,0,0,1,2.1-1,1.77,1.77,0,0,1,1.88,1.48h.11l.54-.52a2.89,2.89,0,0,1,2.1-1c1.16,0,2,.63,2,2.53v4.93h-1.16v-4.93c0-1.16-.52-1.48-1.16-1.48s-1.47.74-1.88,1.16l-.43.43v4.82h-1.14v-4.93c0-1.16-.54-1.48-1.16-1.48s-1.48.74-1.9,1.16l-.42.43v4.82H177.7Z"/><path class="cls-3" d="M191,145.93V141h1.16v4.93c0,1.16.52,1.48,1.16,1.48s1.46-.74,1.88-1.16l.43-.43V141h1.16v7.35h-1.16V147l-.52.52a2.8,2.8,0,0,1-2.11,1C191.86,148.46,191,147.83,191,145.93Z"/><path class="cls-3" d="M199.84,141H201v1.37l.52-.52a2.84,2.84,0,0,1,2.1-1c1.16,0,2,.63,2,2.53v4.93h-1.16v-4.93c0-1.16-.52-1.48-1.14-1.48s-1.48.74-1.9,1.16l-.42.43v4.82h-1.16Z"/><path class="cls-3" d="M208.8,142h-1.25v-1H210v7.35H208.8Zm0-3.78H210v1.26H208.8Z"/><path class="cls-3" d="M212.52,145.3v-1.25a3.06,3.06,0,0,1,3.15-3.16,4.47,4.47,0,0,1,2.1.52v1.89h-1v-1.16a2.66,2.66,0,0,0-1-.21,1.88,1.88,0,0,0-2,2.11v1.25a1.86,1.86,0,0,0,2,2.11,4.12,4.12,0,0,0,1.9-.47h.09v1a4.75,4.75,0,0,1-2,.47A2.87,2.87,0,0,1,212.52,145.3Z"/><path class="cls-3" d="M219.76,145.93v-1.16a3.78,3.78,0,0,1,3.88-3.78h2v7.35h-1.16V147l-.52.52a2.86,2.86,0,0,1-2.1,1C220.7,148.46,219.76,147.72,219.76,145.93Zm4.72-.11V142h-.83a2.58,2.58,0,0,0-2.73,2.73v1.16c0,1.16.52,1.48,1.14,1.48a3.51,3.51,0,0,0,2-1.16Z"/><path class="cls-3" d="M231.51,148.35a2.24,2.24,0,0,1-2.53-2.53V142h-1.16v-1H229v-1.68h1.16V141h2.1v1h-2.1v3.57c0,1.36.42,1.68,1.57,1.68h.74v1Z"/><path class="cls-3" d="M234.85,142H233.6v-1H236v7.35h-1.16Zm0-3.78H236v1.26h-1.16Z"/><path class="cls-3" d="M238.52,144.58c0-2.2,1-3.68,3.2-3.68s3.2,1.48,3.2,3.68c0,2.41-1,3.88-3.2,3.88S238.52,147,238.52,144.58Zm5.24,0c0-1.63-.47-2.63-2-2.63s-2,1-2,2.63.47,2.84,2,2.84S243.76,146.2,243.76,144.58Z"/><path class="cls-3" d="M247.44,141h1.16v1.37l.52-.52a2.84,2.84,0,0,1,2.1-1c1.16,0,2,.63,2,2.53v4.93H252v-4.93c0-1.16-.52-1.48-1.14-1.48s-1.48.74-1.9,1.16l-.42.43v4.82h-1.16Z"/><path class="cls-3" d="M264.37,138.27h1l3.36,4.77,3.36-4.77h1v10.08h-1.26v-7.82l-2.93,4h-.58l-2.78-3.94v7.71h-1.26Z"/><path class="cls-3" d="M275.76,145.52v-1.46a3,3,0,0,1,3.15-3.16c1.47,0,2.51.63,2.51,2.11a2,2,0,0,1-2.3,2.1h-2.2v.42a1.74,1.74,0,0,0,2,1.89,5.16,5.16,0,0,0,2-.47H281v1a5.83,5.83,0,0,1-2.1.47C277.12,148.46,275.76,147.61,275.76,145.52Zm1.16-1.37h1.88c1.16,0,1.48-.42,1.48-1.14s-.54-1.06-1.37-1.06c-1.26,0-2,.63-2,2.11Zm.78-4.41,1.32-1.88h1.3v.2L278.44,140h-.74Z"/><path class="cls-3" d="M283.41,145.93v-1.16A3.78,3.78,0,0,1,287.3,141h.83v-2.73h1.16v10.08h-1.16V147l-.52.52a2.86,2.86,0,0,1-2.1,1C284.35,148.46,283.41,147.72,283.41,145.93Zm4.72-.11V142h-.83a2.58,2.58,0,0,0-2.73,2.73v1.16c0,1.16.52,1.48,1.14,1.48a3.51,3.51,0,0,0,2-1.16Z"/><path class="cls-3" d="M292.53,142h-1.25v-1h2.41v7.35h-1.16Zm0-3.78h1.16v1.26h-1.16Z"/><path class="cls-3" d="M296.26,145.93v-1.16a3.78,3.78,0,0,1,3.88-3.78h2v7.35H301V147l-.52.52a2.86,2.86,0,0,1-2.1,1C297.2,148.46,296.26,147.72,296.26,145.93Zm4.72-.11V142h-.83a2.58,2.58,0,0,0-2.73,2.73v1.16c0,1.16.53,1.48,1.14,1.48a3.51,3.51,0,0,0,2-1.16Z"/><path class="cls-3" d="M304.9,148.19v-1H305a8.83,8.83,0,0,0,2,.27c1.16,0,1.79-.32,1.79-1.16,0-.63-.54-.91-1.16-1l-1.1-.27a1.92,1.92,0,0,1-1.73-1.93c0-1.32,1.1-2.11,2.84-2.11a9.79,9.79,0,0,1,1.95.21v1h-.11a9.24,9.24,0,0,0-1.84-.21c-1.1,0-1.68.32-1.68,1.06s.42.73,1,.86l1,.24c1.14.27,2,.73,2,2.15,0,1.63-1.41,2.2-2.94,2.2A8.46,8.46,0,0,1,304.9,148.19Z"/><rect class="cls-3" x="256.84" y="141.89" width="4.31" height="4.31" transform="translate(-22.2 237.61) rotate(-47.49)"/><path class="cls-3" d="M145.5,80h4l26.13,35.61V80h6v48.12h-4L151.53,92.47v35.61h-6Z"/><path class="cls-3" d="M188.74,115.06V80h27.09v5.26H194.77V100h19v5.33h-19v10.27c0,5,2.5,7.25,6.48,7.25h14.57v5.26H201.77C193.23,128.08,188.74,124,188.74,115.06Z"/><path class="cls-3" d="M223.18,115.06V80h6v35.61c0,5,2.5,7.25,6.48,7.25h13.54v5.26h-13C227.67,128.08,223.18,123.59,223.18,115.06Z"/><path class="cls-3" d="M256.3,80h6v48.12h-6Z"/><path class="cls-3" d="M269.78,127.57c2.05-8.53,3.53-13.28,5.52-20A209.77,209.77,0,0,1,285.83,80h8c2.05,3.79,7.57,17.32,10.53,27.59,2.05,6.74,3.53,11.48,5.52,20v.51h-6c-1.15-4.81-2.05-8.28-3-11.8H278.77c-1,3.53-1.8,7-3,11.8h-6ZM280.31,111h19.06c-.32-1-.58-2.25-1-3.46-2.5-8.53-5.52-16.81-8.54-22.58-3,5.77-6,14.05-8.54,22.58C281,108.77,280.57,110,280.31,111Z"/><polygon points="108.52 99.81 108.52 79.96 102.55 79.96 102.55 99.98 78.99 99.98 78.99 79.96 72.96 79.96 72.96 128.08 78.99 128.08 78.99 105.3 102.55 105.3 102.55 128.08 108.52 128.08 108.52 106.39 105.28 102.53 108.52 99.81"/><path d="M138.71,85.22V80H111.62V99.35l3.39,4-3.39,2.84v8.83c0,9,4.49,13,13,13h14.06v-5.26H124.14c-4,0-6.48-2.25-6.48-7.25V105.3h19V100h-19V85.22Z"/><rect class="cls-2" x="135.94" y="12.12" width="4.3" height="4.31" transform="translate(56.7 126.75) rotate(-60.01)"/></svg>